<svg width="94" height="162" viewBox="0 0 94 162" fill="none" xmlns="http://www.w3.org/2000/svg">
<path d="M48.486 71.4431C48.486 71.4431 58.753 31.4929 2.51742 39.1728C2.51742 39.1728 14.7139 44.9073 19.3897 57.4155C24.0654 69.9197 33.0224 76.2714 43.2894 75.6229C43.2894 75.6229 40.5431 54.9857 24.4876 48.7316C32.8606 50.4817 44.8914 55.6302 48.486 71.4431ZM61.0415 46.755C61.0415 46.755 50.9403 24.399 84.6493 23.1685C84.6493 23.1685 78.1111 27.8015 76.6709 35.6415C75.1991 43.419 70.6575 48.0519 64.5099 48.7004C64.5099 48.7004 63.9851 36.3212 72.7803 31.0398C68.0414 32.9188 61.4993 37.1337 61.0415 46.755ZM44.0746 36.9696C44.0746 36.9696 54.1759 14.6136 20.4669 13.3831C20.4669 13.3831 27.0051 17.9848 28.4768 25.7936C29.9171 33.5985 34.4942 38.2001 40.5747 38.8798C40.5747 38.8798 41.0995 26.5045 32.3674 21.1919C37.0787 23.0709 43.6169 27.3132 44.0746 36.9696Z" fill="#008037"/>
<path d="M10.2368 115.997C11.7 137.7 29.7 145.911 42.3069 145.911C61.9925 145.911 77.9454 131.933 77.9454 112.397C77.9454 107.924 77.097 103.647 75.5266 99.6938C72.3226 91.4319 63.7563 81.002 59.116 71.283C30.3748 11.5354 67.6823 0 67.6823 0C38.7438 28.6765 67.8757 69.24 79.4171 83.0098C88.1808 93.4749 93.1841 101.026 93.1841 115.831C93.1841 141.296 72.3542 162 46.592 162C20.8259 162 0 141.328 0 115.831C0 94.5453 13.3723 78.8613 35.1492 77.7597C58.5 76.5785 67.8133 94.9484 67.8133 94.9484C77.4 111.6 71.1 135.9 46.5619 139.713C31.9714 142.043 21.6 131.4 19.3233 126.9C17.9189 124.124 11.7 110.7 24.3 98.1C16.2 110.7 20.5712 120.71 25.2 126C31.5 133.2 38.7 133.2 42.3 133.2C53.4756 133.2 64.3203 122.623 63 109.8C61.6203 92.9231 46.8 85.5 35.1492 86.4C14.4 87.3 9.60978 106.696 10.2368 115.997Z" fill="#008037"/>
<path d="M33.1548 108V102.16H36.7548V103.184H34.3308V104.496H36.4748V105.52H34.3308V106.976H36.7548V108H33.1548ZM39.7117 108.08C39.301 108.08 38.9437 108.011 38.6397 107.872C38.3357 107.733 38.101 107.539 37.9357 107.288C37.7704 107.037 37.6877 106.741 37.6877 106.4H38.8877C38.8877 106.597 38.9624 106.755 39.1117 106.872C39.2664 106.984 39.4744 107.04 39.7357 107.04C39.9864 107.04 40.181 106.984 40.3197 106.872C40.4637 106.76 40.5357 106.605 40.5357 106.408C40.5357 106.237 40.4824 106.091 40.3757 105.968C40.269 105.845 40.1197 105.763 39.9277 105.72L39.3357 105.584C38.8397 105.467 38.453 105.251 38.1757 104.936C37.9037 104.616 37.7677 104.227 37.7677 103.768C37.7677 103.427 37.845 103.131 37.9997 102.88C38.1597 102.624 38.3837 102.427 38.6717 102.288C38.9597 102.149 39.301 102.08 39.6957 102.08C40.293 102.08 40.765 102.229 41.1117 102.528C41.4637 102.821 41.6397 103.219 41.6397 103.72H40.4397C40.4397 103.533 40.373 103.387 40.2397 103.28C40.1117 103.173 39.925 103.12 39.6797 103.12C39.4504 103.12 39.2744 103.173 39.1517 103.28C39.029 103.381 38.9677 103.528 38.9677 103.72C38.9677 103.891 39.0157 104.037 39.1117 104.16C39.213 104.277 39.3544 104.357 39.5357 104.4L40.1597 104.544C40.677 104.661 41.069 104.875 41.3357 105.184C41.6024 105.488 41.7357 105.877 41.7357 106.352C41.7357 106.693 41.6504 106.995 41.4797 107.256C41.3144 107.517 41.0797 107.72 40.7757 107.864C40.477 108.008 40.1224 108.08 39.7117 108.08ZM43.9086 108V103.28H42.4286V102.16H46.5886V103.28H45.1086V108H43.9086ZM47.4094 108V102.16H49.3054C49.7108 102.16 50.0628 102.237 50.3614 102.392C50.6654 102.547 50.9001 102.765 51.0654 103.048C51.2361 103.325 51.3214 103.653 51.3214 104.032V106.12C51.3214 106.493 51.2361 106.821 51.0654 107.104C50.9001 107.387 50.6654 107.608 50.3614 107.768C50.0628 107.923 49.7108 108 49.3054 108H47.4094ZM48.6094 106.88H49.3054C49.5508 106.88 49.7481 106.811 49.8974 106.672C50.0468 106.533 50.1214 106.349 50.1214 106.12V104.032C50.1214 103.808 50.0468 103.627 49.8974 103.488C49.7481 103.349 49.5508 103.28 49.3054 103.28H48.6094V106.88ZM33.0748 119V117.872L34.9308 116.08C35.1495 115.867 35.3122 115.669 35.4188 115.488C35.5308 115.307 35.5868 115.109 35.5868 114.896C35.5868 114.661 35.5228 114.48 35.3948 114.352C35.2722 114.224 35.1015 114.16 34.8828 114.16C34.6428 114.16 34.4535 114.232 34.3148 114.376C34.1815 114.515 34.1148 114.709 34.1148 114.96H32.9148C32.9148 114.576 32.9948 114.245 33.1548 113.968C33.3202 113.685 33.5522 113.467 33.8508 113.312C34.1495 113.157 34.5015 113.08 34.9068 113.08C35.2855 113.08 35.6135 113.152 35.8908 113.296C36.1735 113.435 36.3922 113.629 36.5468 113.88C36.7068 114.131 36.7868 114.427 36.7868 114.768C36.7868 115.147 36.6935 115.509 36.5068 115.856C36.3202 116.203 36.0215 116.565 35.6108 116.944L34.5548 117.92H36.8508V119H33.0748ZM39.7197 119.08C39.325 119.08 38.9837 119.008 38.6957 118.864C38.4077 118.715 38.1837 118.509 38.0237 118.248C37.869 117.981 37.7917 117.672 37.7917 117.32V114.84C37.7917 114.488 37.869 114.181 38.0237 113.92C38.1837 113.653 38.4077 113.448 38.6957 113.304C38.9837 113.155 39.3224 113.08 39.7117 113.08C40.1064 113.08 40.445 113.155 40.7277 113.304C41.0157 113.448 41.237 113.653 41.3917 113.92C41.5517 114.181 41.6317 114.488 41.6317 114.84V117.32C41.6317 117.672 41.5517 117.981 41.3917 118.248C41.237 118.509 41.0157 118.715 40.7277 118.864C40.445 119.008 40.109 119.08 39.7197 119.08ZM39.7117 118.04C39.9624 118.04 40.157 117.976 40.2957 117.848C40.4397 117.72 40.5117 117.544 40.5117 117.32V114.84C40.5117 114.616 40.4397 114.44 40.2957 114.312C40.157 114.184 39.9624 114.12 39.7117 114.12C39.461 114.12 39.2637 114.184 39.1197 114.312C38.981 114.44 38.9117 114.616 38.9117 114.84V117.32C38.9117 117.544 38.9837 117.72 39.1277 117.848C39.2717 117.976 39.4664 118.04 39.7117 118.04ZM39.7117 116.632C39.5464 116.632 39.4104 116.579 39.3037 116.472C39.2024 116.365 39.1517 116.227 39.1517 116.056C39.1517 115.885 39.2024 115.749 39.3037 115.648C39.4104 115.547 39.5464 115.496 39.7117 115.496C39.8824 115.496 40.0184 115.547 40.1197 115.648C40.221 115.749 40.2717 115.885 40.2717 116.056C40.2717 116.227 40.221 116.365 40.1197 116.472C40.0184 116.579 39.8824 116.632 39.7117 116.632ZM42.6686 119V117.872L44.5246 116.08C44.7432 115.867 44.9059 115.669 45.0126 115.488C45.1246 115.307 45.1806 115.109 45.1806 114.896C45.1806 114.661 45.1166 114.48 44.9886 114.352C44.8659 114.224 44.6952 114.16 44.4766 114.16C44.2366 114.16 44.0472 114.232 43.9086 114.376C43.7752 114.515 43.7086 114.709 43.7086 114.96H42.5086C42.5086 114.576 42.5886 114.245 42.7486 113.968C42.9139 113.685 43.1459 113.467 43.4446 113.312C43.7432 113.157 44.0952 113.08 44.5006 113.08C44.8792 113.08 45.2072 113.152 45.4846 113.296C45.7672 113.435 45.9859 113.629 46.1406 113.88C46.3006 114.131 46.3806 114.427 46.3806 114.768C46.3806 115.147 46.2872 115.509 46.1006 115.856C45.9139 116.203 45.6152 116.565 45.2046 116.944L44.1486 117.92H46.4446V119H42.6686ZM49.2734 119.08C48.8734 119.08 48.5268 119.013 48.2334 118.88C47.9454 118.741 47.7214 118.547 47.5614 118.296C47.4014 118.04 47.3214 117.741 47.3214 117.4H48.5214C48.5214 117.613 48.5854 117.781 48.7134 117.904C48.8468 118.021 49.0334 118.08 49.2734 118.08C49.5188 118.08 49.7054 118.021 49.8334 117.904C49.9614 117.787 50.0254 117.619 50.0254 117.4V116.92C50.0254 116.701 49.9588 116.533 49.8254 116.416C49.6974 116.293 49.5134 116.232 49.2734 116.232H48.5854V115.2L49.7614 114.16H47.6014V113.16H50.9854V114.192L49.2734 115.704V115.216C49.8761 115.216 50.3508 115.368 50.6974 115.672C51.0494 115.976 51.2254 116.389 51.2254 116.912V117.4C51.2254 117.741 51.1454 118.04 50.9854 118.296C50.8308 118.547 50.6068 118.741 50.3134 118.88C50.0201 119.013 49.6734 119.08 49.2734 119.08Z" fill="#008037"/>
</svg>
